<?xml version="1.0" encoding="UTF-8" standalone="no"?>
<svg
   xmlns:dc="http://purl.org/dc/elements/1.1/"
   xmlns:cc="http://creativecommons.org/ns#"
   xmlns:rdf="http://www.w3.org/1999/02/22-rdf-syntax-ns#"
   xmlns:svg="http://www.w3.org/2000/svg"
   xmlns="http://www.w3.org/2000/svg"
   version="1.1"
   id="svg2"
   viewBox="0 0 256 256"
   height="256"
   width="256">
  <defs
     id="defs4" />
  <metadata
     id="metadata7">
    <rdf:RDF>
      <cc:Work
         rdf:about="">
        <dc:format>image/svg+xml</dc:format>
        <dc:type
           rdf:resource="http://purl.org/dc/dcmitype/StillImage" />
        <dc:title></dc:title>
      </cc:Work>
    </rdf:RDF>
  </metadata>
  <g
     transform="translate(0,-796.36216)"
     id="layer1">
    <g
       transform="matrix(0.51665672,0,0,0.53228651,-68.795813,649.58773)"
       id="g4170">
      <path
         id="path4159"
         d="m 146.09029,651.18395 c 0,-90.97212 5.74297,-110.89864 41.69643,-144.67517 22.93304,-21.54446 41.69643,-55.70787 41.69643,-75.91867 0,-43.4244 -41.33643,-85.07888 -57.87447,-58.31978 -5.94465,9.61865 -18.78986,17.48846 -28.54491,17.48846 -11.73092,0 -11.16192,-7.92183 1.68045,-23.39594 14.9127,-17.9687 14.41919,-25.26269 -2.12744,-31.44324 -15.51209,-5.79411 -12.20458,-15.55782 11.8128,-34.87123 71.72957,-57.68086 179.10776,4.12729 120.2185,69.19918 -15.6675,17.31239 -28.48636,44.02047 -28.48636,59.35129 0,23.56887 19.32084,27.87422 125.08929,27.87422 l 125.08929,0 0,66.71429 c 0,36.69285 7.50535,66.71428 16.67857,66.71428 9.17321,0 16.7935,-13.13438 16.93397,-29.1875 0.21825,-24.94359 2.60621,-25.54985 16.42317,-4.16964 10.77853,16.67857 16.25292,18.06844 16.42317,4.16964 0.1401,-11.46652 8.20371,-20.84821 17.91829,-20.84821 9.71459,0 13.54991,6.65495 8.52292,14.78877 -5.02697,8.13382 2.03544,24.06354 15.69425,35.39935 31.6817,26.29347 31.61622,56.84891 -0.17829,83.23606 -20.09546,16.67777 -32.16913,16.00682 -61.41686,-3.41294 -33.7992,-22.44183 -39.8908,-20.20062 -85.12591,31.31932 -47.47455,54.07046 -52.09281,55.49086 -180.42248,55.49086 l -131.70081,0 0,-105.5034 z"
         style="fill:#fefefe" />
      <path
         id="path4157"
         d="m 146.09029,651.18395 c 0,-90.97212 5.74297,-110.89864 41.69643,-144.67517 22.93304,-21.54446 41.69643,-55.70787 41.69643,-75.91867 0,-43.4244 -41.33643,-85.07888 -57.87447,-58.31978 -5.94465,9.61865 -18.78986,17.48846 -28.54491,17.48846 -11.73092,0 -11.16192,-7.92183 1.68045,-23.39594 14.9127,-17.9687 14.41919,-25.26269 -2.12744,-31.44324 -15.51209,-5.79411 -12.20458,-15.55782 11.8128,-34.87123 71.72957,-57.68086 179.10776,4.12729 120.2185,69.19918 -15.6675,17.31239 -28.48636,44.02047 -28.48636,59.35129 0,23.56887 19.32084,27.87422 125.08929,27.87422 l 125.08929,0 0,66.71429 c 0,36.69285 7.50535,66.71428 16.67857,66.71428 9.17321,0 16.7935,-13.13438 16.93397,-29.1875 0.21825,-24.94359 2.60621,-25.54985 16.42317,-4.16964 10.77853,16.67857 16.25292,18.06844 16.42317,4.16964 0.1401,-11.46652 9.01165,-20.84821 19.71374,-20.84821 10.70207,0 14.43839,5.01995 8.3029,11.15543 -6.1355,6.13549 1.67979,25.33821 17.36731,42.67272 30.79476,34.02784 16.34703,79.37227 -29.64154,93.03055 -13.10446,3.89193 -9.47245,-3.95772 8.07114,-17.44367 20.7102,-15.92016 27.95297,-34.799 20.65086,-53.82803 -8.52941,-22.22727 -16.60657,-24.85971 -33.43201,-10.89583 -12.202,10.12674 -28.23207,12.84837 -35.62238,6.04805 -7.39033,-6.80032 -8.99602,5.60398 -3.56823,27.56511 6.91517,27.97913 4.60842,34.66904 -7.70754,22.35309 -12.31595,-12.31596 -32.52029,-0.5559 -67.5089,39.29388 -48.89717,55.69079 -52.66374,56.87012 -181.63343,56.87012 l -131.70081,0 0,-105.5034 z M 273.91766,346.94127 c 13.52948,-35.25726 -18.54032,-64.35911 -55.35493,-50.23202 -25.40615,9.74925 -26.19246,13.75861 -5.29073,26.97708 13.50274,8.53927 18.47848,15.64088 11.05719,15.78135 -19.28372,0.36499 3.80313,33.61254 23.3403,33.61254 8.91974,0 20.73142,-11.76253 26.24817,-26.13895 z"
         style="fill:#fefe00" />
      <path
         id="path4155"
         d="m 146.09029,651.18395 c 0,-91.81554 5.57682,-110.74256 42.98506,-145.88576 30.78051,-28.91679 41.11934,-53.09425 36.41393,-85.1543 -4.88804,-33.30433 1.56136,-46.89861 25.17982,-53.07498 45.56902,-11.91656 30.19291,-69.43725 -18.08621,-67.65894 -24.14845,0.88948 -31.80558,-4.36677 -21.4488,-14.72355 20.71501,-20.71501 66.24569,-3.30163 79.12515,30.2617 5.49108,14.30954 -2.18451,39.46316 -17.05687,55.89693 -14.87235,16.43377 -27.04065,42.42298 -27.04065,57.7538 0,23.56887 19.32084,27.87422 125.08929,27.87422 l 125.08929,0 0,84.37718 c 0,46.40744 6.65206,80.26597 14.78238,75.24115 8.1303,-5.0248 18.96842,6.87144 24.08469,26.4361 6.51829,24.92594 4.04202,30.3118 -8.27394,17.99585 -12.31595,-12.31596 -32.52029,-0.5559 -67.5089,39.29388 -48.89717,55.69079 -52.66374,56.87012 -181.63343,56.87012 l -131.70081,0 0,-105.5034 z m 441.98215,16.70095 c 29.61397,-23.0078 30.80851,-30.24102 10.64503,-64.45854 -21.91264,-37.18589 -21.62905,-37.50417 8.05659,-9.04212 33.18507,31.81724 18.96635,78.32269 -28.23247,92.34039 -13.10446,3.89193 -8.81558,-4.58594 9.53085,-18.83973 z"
         style="fill:#0000fe" />
      <path
         id="path4153"
         d="m 146.09029,651.18395 c 0,-91.81554 5.57682,-110.74256 42.98506,-145.88576 30.78051,-28.91679 41.11934,-53.09425 36.41393,-85.1543 -4.88804,-33.30433 1.56136,-46.89861 25.17982,-53.07498 45.56902,-11.91656 30.19291,-69.43725 -18.08621,-67.65894 -24.14845,0.88948 -31.80558,-4.36677 -21.4488,-14.72355 20.71501,-20.71501 66.24569,-3.30163 79.12515,30.2617 5.49108,14.30954 -2.18451,39.46316 -17.05687,55.89693 -14.87235,16.43377 -27.04065,42.42298 -27.04065,57.7538 0,23.56887 19.32084,27.87422 125.08929,27.87422 l 125.08929,0 0,84.37718 c 0,46.40744 6.65206,80.26597 14.78238,75.24115 8.1303,-5.0248 18.96842,6.87144 24.08469,26.4361 6.51829,24.92594 4.04202,30.3118 -8.27394,17.99585 -12.31595,-12.31596 -32.52029,-0.5559 -67.5089,39.29388 -48.89717,55.69079 -52.66374,56.87012 -181.63343,56.87012 l -131.70081,0 0,-105.5034 z M 437.9653,506.50878 c 29.90047,-33.03964 29.13134,-33.35714 -80.80788,-33.35714 -67.00181,0 -110.9957,7.00082 -110.9957,17.66289 0,9.71459 -6.65495,13.54991 -14.78877,8.52292 -8.13383,-5.02697 -24.06354,2.03544 -35.39935,15.69425 -17.91737,21.58913 -5.42568,24.83423 95.59666,24.83423 95.02559,0 121.70972,-6.08018 146.39504,-33.35715 z M 588.07244,667.8849 c 29.61397,-23.0078 30.80851,-30.24102 10.64503,-64.45854 -21.91264,-37.18589 -21.62905,-37.50417 8.05659,-9.04212 33.18507,31.81724 18.96635,78.32269 -28.23247,92.34039 -13.10446,3.89193 -8.81558,-4.58594 9.53085,-18.83973 z"
         style="fill:#fe0000" />
      <path
         id="path4151"
         d="m 146.09029,651.18395 c 0,-91.81554 5.57682,-110.74256 42.98506,-145.88576 30.78051,-28.91679 41.11934,-53.09425 36.41393,-85.1543 -4.88804,-33.30433 1.56136,-46.89861 25.17982,-53.07498 45.56902,-11.91656 30.19291,-69.43725 -18.08621,-67.65894 -24.14845,0.88948 -31.80558,-4.36677 -21.4488,-14.72355 20.71501,-20.71501 66.24569,-3.30163 79.12515,30.2617 5.49108,14.30954 -2.18451,39.46316 -17.05687,55.89693 -14.87235,16.43377 -27.04065,42.42298 -27.04065,57.7538 0,23.56887 19.32084,27.87422 125.08929,27.87422 l 125.08929,0 0,84.37718 c 0,46.40744 6.65206,80.26597 14.78238,75.24115 8.1303,-5.0248 18.96842,6.87144 24.08469,26.4361 6.51829,24.92594 4.04202,30.3118 -8.27394,17.99585 -12.31595,-12.31596 -32.52029,-0.5559 -67.5089,39.29388 -48.89717,55.69079 -52.66374,56.87012 -181.63343,56.87012 l -131.70081,0 0,-105.5034 z m 250.17858,-2.90731 0,-91.73214 -116.75,0 -116.75001,0 0,91.73214 0,91.73214 116.75001,0 116.75,0 0,-91.73214 z M 437.9653,506.50878 c 29.90047,-33.03964 29.13134,-33.35714 -80.80788,-33.35714 -67.00181,0 -110.9957,7.00082 -110.9957,17.66289 0,9.71459 -6.65495,13.54991 -14.78877,8.52292 -8.13383,-5.02697 -24.06354,2.03544 -35.39935,15.69425 -17.91737,21.58913 -5.42568,24.83423 95.59666,24.83423 95.02559,0 121.70972,-6.08018 146.39504,-33.35715 z M 588.07244,667.8849 c 29.61397,-23.0078 30.80851,-30.24102 10.64503,-64.45854 -21.91264,-37.18589 -21.62905,-37.50417 8.05659,-9.04212 33.18507,31.81724 18.96635,78.32269 -28.23247,92.34039 -13.10446,3.89193 -8.81558,-4.58594 9.53085,-18.83973 z"
         style="fill:#00fe00" />
      <path
         id="path4149"
         d="m 146.09029,651.18395 c 0,-91.81554 5.57682,-110.74256 42.98506,-145.88576 30.78051,-28.91679 41.11934,-53.09425 36.41393,-85.1543 -4.88804,-33.30433 1.56136,-46.89861 25.17982,-53.07498 45.56902,-11.91656 30.19291,-69.43725 -18.08621,-67.65894 -24.14845,0.88948 -31.80558,-4.36677 -21.4488,-14.72355 20.71501,-20.71501 66.24569,-3.30163 79.12515,30.2617 5.49108,14.30954 -2.18451,39.46316 -17.05687,55.89693 -14.87235,16.43377 -27.04065,42.42298 -27.04065,57.7538 0,23.56887 19.32084,27.87422 125.08929,27.87422 l 125.08929,0 0,84.37718 c 0,46.40744 6.65206,80.26597 14.78238,75.24115 8.1303,-5.0248 18.96842,6.87144 24.08469,26.4361 6.51829,24.92594 4.04202,30.3118 -8.27394,17.99585 -12.31595,-12.31596 -32.52029,-0.5559 -67.5089,39.29388 -48.89717,55.69079 -52.66374,56.87012 -181.63343,56.87012 l -131.70081,0 0,-105.5034 z m 250.17858,-2.90731 0,-91.73214 -116.75,0 -116.75001,0 0,91.73214 0,91.73214 116.75001,0 116.75,0 0,-91.73214 z m 83.39285,5.75431 c 0,-7.75147 -13.13437,-14.96424 -29.1875,-16.02833 -26.85318,-1.78 -26.78193,-2.55849 0.89081,-9.7338 24.03774,-6.23276 29.06206,-21.75454 25.01785,-77.28846 l -5.06044,-69.48943 -112.58036,-4.93169 c -74.02446,-3.24271 -112.58036,1.37839 -112.58036,13.49325 0,10.13372 -6.65495,14.31195 -14.78877,9.28496 -8.13383,-5.02697 -24.06354,2.03544 -35.39935,15.69425 -32.77239,39.48832 193.46181,35.3963 240.67841,-4.35327 34.15349,-28.75232 34.23525,-28.67057 5.48293,5.48293 -19.80475,23.52511 -29.1875,63.22744 -29.1875,123.5046 0,87.77773 0.39678,88.47518 33.35714,58.64639 18.34643,-16.60328 33.35714,-36.52992 33.35714,-44.2814 z m 108.41072,13.85395 c 29.61397,-23.0078 30.80851,-30.24102 10.64503,-64.45854 -21.91264,-37.18589 -21.62905,-37.50417 8.05659,-9.04212 33.18507,31.81724 18.96635,78.32269 -28.23247,92.34039 -13.10446,3.89193 -8.81558,-4.58594 9.53085,-18.83973 z"
         style="fill:#000000" />
    </g>
  </g>
</svg>
